<svg width="16" height="16" viewBox="0 0 16 16" fill="none" xmlns="http://www.w3.org/2000/svg">
<path d="M7.33333 3.33325H3.18519C2.87085 3.33325 2.5694 3.45812 2.34713 3.68038C2.12487 3.90265 2 4.20411 2 4.51844V12.8147C2 13.1291 2.12487 13.4305 2.34713 13.6528C2.5694 13.8751 2.87085 13.9999 3.18519 13.9999H11.4815C11.7958 13.9999 12.0973 13.8751 12.3195 13.6528C12.5418 13.4305 12.6667 13.1291 12.6667 12.8147V8.66659" stroke="#151515" stroke-linecap="round" stroke-linejoin="round"/>
<path d="M11.7777 2.38132C12.0218 2.13717 12.353 2 12.6982 2C13.0435 2 13.3747 2.13717 13.6188 2.38132C13.863 2.62548 14.0002 2.95663 14.0002 3.30192C14.0002 3.64721 13.863 3.97835 13.6188 4.22251L7.78841 10.0529L5.3335 10.6667L5.94723 8.21175L11.7777 2.38132Z" stroke="#151515" stroke-linecap="round" stroke-linejoin="round"/>
</svg>
