<svg width="16" height="16" viewBox="0 0 16 16" fill="none" xmlns="http://www.w3.org/2000/svg">
<path d="M5.71396 4.66667V3.2C5.71396 2.88174 5.83437 2.57652 6.0487 2.35147C6.26302 2.12643 6.55371 2 6.85682 2H9.14253C9.44564 2 9.73633 2.12643 9.95065 2.35147C10.165 2.57652 10.2854 2.88174 10.2854 3.2V4.66667M12.6663 4.66667L11.9997 12.8C11.9997 13.1183 11.8793 13.4235 11.6649 13.6485C11.4506 13.8736 11.1599 14 10.8568 14H5.14253C4.83943 14 4.54874 13.8736 4.33441 13.6485C4.12008 13.4235 3.99967 13.1183 3.99967 12.8L3.33301 4.66667H12.6663Z" stroke="#151515" stroke-linecap="round" stroke-linejoin="round"/>
<path d="M2.66699 4.66699H3.85218H13.3337" stroke="#151515" stroke-width="2" stroke-linecap="round" stroke-linejoin="round"/>
<path d="M6.66699 7.33301V10.6663" stroke="#151515" stroke-linecap="round" stroke-linejoin="round"/>
<path d="M9.33301 7.33301V10.6663" stroke="#151515" stroke-linecap="round" stroke-linejoin="round"/>
</svg>
