<svg width="16" height="16" viewBox="0 0 16 16" fill="none" xmlns="http://www.w3.org/2000/svg">
<path d="M2.6665 5.33325H13.3332" stroke="#CBCBCB" stroke-linecap="round" stroke-linejoin="round"/>
<path d="M10.6665 2V3.33333" stroke="#CBCBCB" stroke-linecap="round" stroke-linejoin="round"/>
<path d="M5.3335 2V3.33333" stroke="#CBCBCB" stroke-linecap="round" stroke-linejoin="round"/>
<path d="M2 4.00008C2 3.2637 2.59695 2.66675 3.33333 2.66675H12.6667C13.403 2.66675 14 3.2637 14 4.00008V12.6667C14 13.4031 13.403 14.0001 12.6667 14.0001H3.33333C2.59695 14.0001 2 13.4031 2 12.6667V4.00008Z" stroke="#CBCBCB" stroke-linecap="round" stroke-linejoin="round"/>
<path d="M10.6665 11H10.6678V11.0013H10.6665V11Z" stroke="#CBCBCB" stroke-linecap="round" stroke-linejoin="round"/>
<path d="M8 11H8.00133V11.0013H8V11Z" stroke="#CBCBCB" stroke-linecap="round" stroke-linejoin="round"/>
<path d="M5.3335 11H5.33483V11.0013H5.3335V11Z" stroke="#CBCBCB" stroke-linecap="round" stroke-linejoin="round"/>
<path d="M10.6665 8.33325H10.6678V8.33459H10.6665V8.33325Z" stroke="#CBCBCB" stroke-linecap="round" stroke-linejoin="round"/>
<path d="M8 8.33325H8.00133V8.33459H8V8.33325Z" stroke="#CBCBCB" stroke-linecap="round" stroke-linejoin="round"/>
<path d="M5.3335 8.33325H5.33483V8.33459H5.3335V8.33325Z" stroke="#CBCBCB" stroke-linecap="round" stroke-linejoin="round"/>
</svg>
