<svg width="20" height="20" viewBox="0 0 20 20" fill="none" xmlns="http://www.w3.org/2000/svg">
<path d="M3.3335 6.66675H16.6668" stroke="#151515" stroke-linecap="round" stroke-linejoin="round"/>
<path d="M13.3335 2.5V4.16667" stroke="#151515" stroke-linecap="round" stroke-linejoin="round"/>
<path d="M6.6665 2.5V4.16667" stroke="#151515" stroke-linecap="round" stroke-linejoin="round"/>
<path d="M2.5 4.99992C2.5 4.07944 3.24619 3.33325 4.16667 3.33325H15.8333C16.7538 3.33325 17.5 4.07944 17.5 4.99992V15.8333C17.5 16.7537 16.7538 17.4999 15.8333 17.4999H4.16667C3.24619 17.4999 2.5 16.7537 2.5 15.8333V4.99992Z" stroke="#151515" stroke-linecap="round" stroke-linejoin="round"/>
<path d="M13.3335 13.75H13.3352V13.7517H13.3335V13.75Z" stroke="#151515" stroke-linecap="round" stroke-linejoin="round"/>
<path d="M10 13.75H10.0017V13.7517H10V13.75Z" stroke="#151515" stroke-linecap="round" stroke-linejoin="round"/>
<path d="M6.6665 13.75H6.66817V13.7517H6.6665V13.75Z" stroke="#151515" stroke-linecap="round" stroke-linejoin="round"/>
<path d="M13.3335 10.4167H13.3352V10.4184H13.3335V10.4167Z" stroke="#151515" stroke-linecap="round" stroke-linejoin="round"/>
<path d="M10 10.4167H10.0017V10.4184H10V10.4167Z" stroke="#151515" stroke-linecap="round" stroke-linejoin="round"/>
<path d="M6.6665 10.4167H6.66817V10.4184H6.6665V10.4167Z" stroke="#151515" stroke-linecap="round" stroke-linejoin="round"/>
</svg>
