<svg width="14" height="14" viewBox="0 0 14 14" fill="none" xmlns="http://www.w3.org/2000/svg">
<path d="M8.39628 11.4369C8.59155 11.6322 8.90813 11.6322 9.10339 11.4369C9.29865 11.2416 9.29865 10.9251 9.10339 10.7298L8.39628 11.4369ZM4.6665 7.00002L4.31295 6.64647C4.21918 6.74024 4.1665 6.86741 4.1665 7.00002C4.1665 7.13263 4.21918 7.25981 4.31295 7.35357L4.6665 7.00002ZM9.10339 3.27024C9.29865 3.07498 9.29865 2.7584 9.10339 2.56313C8.90813 2.36787 8.59155 2.36787 8.39628 2.56313L9.10339 3.27024ZM9.10339 10.7298L5.02006 6.64647L4.31295 7.35357L8.39628 11.4369L9.10339 10.7298ZM5.02006 7.35357L9.10339 3.27024L8.39628 2.56313L4.31295 6.64647L5.02006 7.35357Z" fill="#AF9B43"/>
</svg>
