<svg width="17" height="16" viewBox="0 0 17 16" fill="none" xmlns="http://www.w3.org/2000/svg">
<path d="M7.20711 2.62623C6.81658 2.2357 6.18342 2.2357 5.79289 2.62623C5.40237 3.01675 5.40237 3.64991 5.79289 4.04044L7.20711 2.62623ZM11.1667 8L11.8738 8.70711C12.2643 8.31658 12.2643 7.68342 11.8738 7.29289L11.1667 8ZM5.79289 11.9596C5.40237 12.3501 5.40237 12.9832 5.79289 13.3738C6.18342 13.7643 6.81658 13.7643 7.20711 13.3738L5.79289 11.9596ZM5.79289 4.04044L10.4596 8.70711L11.8738 7.29289L7.20711 2.62623L5.79289 4.04044ZM10.4596 7.29289L5.79289 11.9596L7.20711 13.3738L11.8738 8.70711L10.4596 7.29289Z" fill="#14181F"/>
</svg>
