<svg width="16" height="16" viewBox="0 0 16 16" fill="none" xmlns="http://www.w3.org/2000/svg">
<path d="M13.0204 6.35355C13.2156 6.15829 13.2156 5.84171 13.0204 5.64645C12.8251 5.45118 12.5085 5.45118 12.3133 5.64645L13.0204 6.35355ZM8.00016 10.6667L7.64661 11.0202C7.74038 11.114 7.86756 11.1667 8.00016 11.1667C8.13277 11.1667 8.25995 11.114 8.35372 11.0202L8.00016 10.6667ZM3.68705 5.64645C3.49179 5.45118 3.1752 5.45118 2.97994 5.64645C2.78468 5.84171 2.78468 6.15829 2.97994 6.35355L3.68705 5.64645ZM12.3133 5.64645L7.64661 10.3131L8.35372 11.0202L13.0204 6.35355L12.3133 5.64645ZM8.35372 10.3131L3.68705 5.64645L2.97994 6.35355L7.64661 11.0202L8.35372 10.3131Z" fill="#151515"/>
</svg>
