<svg width="16" height="16" viewBox="0 0 16 16" fill="none" xmlns="http://www.w3.org/2000/svg">
<path fill-rule="evenodd" clip-rule="evenodd" d="M2.14434 7.99999C2.52944 8.53109 3.3187 9.53183 4.35798 10.4031C5.43558 11.3066 6.6974 12 8.00019 12C9.30298 12 10.5648 11.3066 11.6424 10.4031C12.6817 9.53183 13.4709 8.53109 13.856 7.99999C13.4709 7.46889 12.6817 6.46815 11.6424 5.59685C10.5648 4.69342 9.30298 3.99999 8.00019 3.99999C6.6974 3.99999 5.43558 4.69343 4.35798 5.59685C3.3187 6.46815 2.52944 7.46889 2.14434 7.99999ZM3.50137 4.57509C4.67585 3.59044 6.23771 2.66666 8.00019 2.66666C9.76267 2.66666 11.3245 3.59044 12.499 4.57509C13.6849 5.56928 14.5623 6.69808 14.9677 7.26199C15.2867 7.70557 15.2867 8.29441 14.9677 8.73799C14.5623 9.3019 13.6849 10.4307 12.499 11.4249C11.3245 12.4095 9.76267 13.3333 8.00019 13.3333C6.23771 13.3333 4.67586 12.4095 3.50137 11.4249C2.3155 10.4307 1.43806 9.3019 1.03264 8.73799C0.713729 8.29441 0.713729 7.70557 1.03264 7.26199C1.43806 6.69808 2.3155 5.56928 3.50137 4.57509Z" fill="#151515"/>
<path fill-rule="evenodd" clip-rule="evenodd" d="M8.00019 9.33332C8.73657 9.33332 9.33352 8.73637 9.33352 7.99999C9.33352 7.26361 8.73657 6.66666 8.00019 6.66666C7.26381 6.66666 6.66686 7.26361 6.66686 7.99999C6.66686 8.73637 7.26381 9.33332 8.00019 9.33332ZM8.00019 10.6667C9.47295 10.6667 10.6669 9.47275 10.6669 7.99999C10.6669 6.52723 9.47295 5.33332 8.00019 5.33332C6.52743 5.33332 5.33352 6.52723 5.33352 7.99999C5.33352 9.47275 6.52743 10.6667 8.00019 10.6667Z" fill="#151515"/>
</svg>
