<?xml version="1.0" encoding="UTF-8"?>
<svg id="Layer_2" data-name="Layer 2" xmlns="http://www.w3.org/2000/svg" viewBox="0 0 804.32 316.02">
  <defs>
    <style>
      .cls-1 {
        fill: #e1cd75;
      }
    </style>
  </defs>
  <g id="Layer_3" data-name="Layer 3">
    <g>
      <g>
        <path class="cls-1" d="M804.32,59.21l-29.22,18.33c-.59,.36-.94,1-.94,1.69v22.02h-21v-9.89c0-1.1-.9-2-2-2h-115c-1.11,0-2,.9-2,2v9.89h-21V59.21h191.16Z"/>
        <path class="cls-1" d="M774.16,105.25v210.77h-74v-58.78c0-.53-.21-1.03-.59-1.41s-.88-.59-1.41-.59h-35s-50,.02-50,.02V105.25h23c1.1,0,2-.9,2-2v-9.89h111v9.89c0,1.1,.89,2,2,2h23Zm-58.83,127.83v-90.26c0-12.13-9.87-22-22-22s-22,9.87-22,22v90.26h44Z"/>
        <polygon class="cls-1" points="774.16 24.1 774.16 55.2 613.16 55.21 613.16 24.1 774.16 24.1"/>
        <polygon class="cls-1" points="696.16 259.24 696.16 316.02 665.16 316.02 665.16 259.25 696.16 259.24"/>
        <polygon class="cls-1" points="661.16 259.25 661.16 312.61 615.51 259.26 661.16 259.25"/>
        <polygon class="cls-1" points="610.24 259.26 658.82 316.02 145.51 316.02 194.08 259.26 209.16 259.26 595.16 259.26 610.24 259.26"/>
        <polygon class="cls-1" points="609.16 113.25 609.16 255.26 597.16 255.26 597.16 113.25 597.16 76.13 609.16 62.5 609.16 90.79 609.16 103.25 609.16 113.25"/>
        <polygon class="cls-1" points="609.16 27.77 609.16 56.45 597.16 70.08 597.16 42.63 609.16 27.77"/>
        <polygon class="cls-1" points="593.16 77.38 593.16 111.25 557.91 111.25 535.41 111.25 500.12 111.25 477.62 111.25 442.34 111.25 419.84 111.25 384.55 111.25 362.05 111.25 326.77 111.25 304.27 111.25 268.99 111.25 246.49 111.25 211.16 111.25 211.16 77.38 593.16 77.38"/>
        <path class="cls-1" d="M555.91,248.26v7h-18.5v-7h1.75c1.1,0,2-.9,2-2V124.25c0-1.1-.9-2-2-2h-1.75v-7h18.5v7h-1.75c-1.1,0-2,.9-2,2v122.01c0,1.1,.9,2,2,2h1.75Z"/>
        <path class="cls-1" d="M498.12,248.26v7h-18.5v-7h1.75c1.1,0,2-.9,2-2V124.25c0-1.1-.9-2-2-2h-1.75v-7h18.5v7h-1.75c-1.1,0-2,.9-2,2v122.01c0,1.1,.9,2,2,2h1.75Z"/>
        <path class="cls-1" d="M440.34,248.26v7h-18.5v-7h1.75c1.1,0,2-.9,2-2V124.25c0-1.1-.9-2-2-2h-1.75v-7h18.5v7h-1.75c-1.1,0-2,.9-2,2v122.01c0,1.1,.9,2,2,2h1.75Z"/>
        <path class="cls-1" d="M382.55,248.26v7h-18.5v-7h1.75c1.1,0,2-.9,2-2V124.25c0-1.1-.9-2-2-2h-1.75v-7h18.5v7h-1.75c-1.1,0-2,.9-2,2v122.01c0,1.1,.9,2,2,2h1.75Z"/>
        <path class="cls-1" d="M324.77,248.26v7h-18.5v-7h1.75c1.1,0,2-.9,2-2V124.25c0-1.1-.9-2-2-2h-1.75v-7h18.5v7h-1.75c-1.1,0-2,.9-2,2v122.01c0,1.1,.9,2,2,2h1.75Z"/>
        <path class="cls-1" d="M266.99,115.25v7h-1.75c-1.1,0-2,.9-2,2v122.01c0,1.1,.9,2,2,2h1.74v7s-18.49,0-18.49,0v-7s1.75,0,1.75,0c1.1,0,2-.9,2-2V124.25c0-1.1-.9-2-2-2h-1.76v-7h18.51Z"/>
        <polygon class="cls-1" points="207.16 113.25 207.16 255.26 195.16 255.26 195.16 113.25 195.16 103.25 195.16 90.79 195.16 62.5 207.16 76.13 207.16 113.25"/>
        <polygon class="cls-1" points="207.16 42.63 207.16 70.08 195.16 56.45 195.16 27.77 207.16 42.63"/>
        <path class="cls-1" d="M191.16,113.25V255.26l-50-.02h-35c-1.1,0-2,.9-2,2v58.78H30.16V105.25h23c1.1,0,2-.9,2-2v-9.89h111v9.89c0,1.1,.89,2,2,2h23v8Zm-58.17,119.83v-90.26c0-12.13-9.87-22-22-22s-22,9.87-22,22v90.26h44Z"/>
        <path class="cls-1" d="M191.16,90.79v10.46h-21v-9.89c0-1.1-.9-2-2-2H53.16c-1.11,0-2,.9-2,2v9.89H30.16v-22.02c0-.69-.36-1.33-.94-1.69L0,59.21H28.16c.07,0,.14,0,.2-.01H191.16v31.59Z"/>
        <polygon class="cls-1" points="191.16 24.1 191.16 55.21 30.16 55.2 30.16 24.1 191.16 24.1"/>
        <polygon class="cls-1" points="188.81 259.26 143.16 312.62 143.16 259.24 188.81 259.26"/>
        <rect class="cls-1" x="108.16" y="259.24" width="31" height="56.78"/>
      </g>
      <g>
        <path class="cls-1" d="M379.41,.24c-.46,.6-.81,1.28-1.02,1.97-.14,.45-.28,1.14-.28,1.4,0,.12-.02,.16-.14,.21-.64,.26-1.06,1.47-1.06,3.02,0,.36-.02,.46-.09,.56-.37,.52-.52,1.1-.53,2.01v.69s-.15,.23-.15,.23c-.23,.35-.31,.76-.31,1.65,0,.58-.02,.79-.07,.87-.31,.5-.37,1.36-.16,2.31l.12,.54-.13,.38c-.12,.35-.12,.44-.12,1.07,0,.6,.02,.75,.13,1.15,.12,.45,.12,.46,.04,.69-.06,.17-.08,.37-.08,.74,0,.46,.01,.54,.15,.9,.13,.35,.15,.45,.17,.9,.01,.55,.1,.98,.28,1.4,.11,.25,.11,.29,.06,.51-.1,.47,.06,1.13,.41,1.66,.12,.19,.19,.35,.23,.58,.09,.47,.3,1.11,.46,1.36,.07,.12,.14,.28,.14,.34,0,.46,.35,1.23,.7,1.56,.18,.17,.24,.26,.27,.42,.07,.36,.22,.61,.64,1.02,.28,.27,.42,.45,.46,.58,.18,.56,.62,1.1,1.04,1.29,.18,.08,.24,.14,.24,.21,0,.32,.49,.86,1.02,1.12,.2,.1,.37,.23,.53,.42,.28,.32,.56,.53,.85,.63,.11,.04,.29,.17,.42,.29,.58,.55,1.16,.83,1.91,.93,.28,.04,.4,.08,.61,.23,.81,.54,2.42,.69,3.94,.39,.88-.18,2.03-.59,2.64-.96,.15-.09,.29-.16,.3-.14,.03,.03-.24,.82-.36,1.06-.12,.24-.42,.68-.6,.88-.08,.09-.13,.17-.12,.18,.01,.02,.13,.03,.26,.03q.23,0,.15,.1c-.04,.05-.44,.46-.89,.92-.44,.45-.77,.81-.72,.79,.11-.04,.53-.15,.69-.18,.15-.04,.16,.04,.04,.29-.09,.17-.57,.65-.65,.65-.03,0-.03,.02-.01,.05,.06,.09,.45,.24,.7,.27l.24,.03-.23,.3c-.12,.17-.3,.42-.39,.58q-.17,.27-.06,.3c.06,.01,.21,.03,.35,.03,.2,0,.24,.02,.22,.07-.01,.04-.19,.3-.4,.59-.29,.41-.41,.64-.55,1.02-.12,.34-.26,.6-.45,.87-.15,.21-.36,.54-.46,.73-.22,.4-.48,.66-.92,.92l-.29,.17-.12-.09c-.07-.05-.37-.31-.67-.58-1.17-1.05-1.58-1.16-2.29-.62-.16,.12-.31,.23-.34,.25-.02,.01-.1-.07-.17-.18-.15-.26-1.05-1.39-1.62-2.02-.63-.72-1.17-1.23-1.68-1.6-.48-.35-1.63-1.09-1.69-1.09-.06,0-.15,.13-.11,.19,.02,.03,.13,.19,.26,.35,.12,.17,.28,.4,.34,.52,.11,.21,.43,1.31,.43,1.45,0,.05-.12,.06-.54,.06-.85,0-2,.29-2.03,.5-.01,.07,.02,.12,.12,.15,.81,.33,1.45,.74,1.96,1.23,.4,.39,.81,.92,1.62,2.12,1,1.48,1.16,1.66,1.5,1.66,.2,0,.82-.35,1.23-.69l.31-.26,.4,.4,.39,.4-.02,.35c-.03,.46,.01,.74,.15,.91,.12,.14,.46,.33,.62,.33,.05,0,.12,.06,.16,.13,.09,.17,.26,.3,.47,.38,.09,.03,.22,.11,.28,.18,.06,.07,.2,.18,.32,.25,.18,.11,.24,.12,.46,.1,.14-.01,.35-.07,.48-.13l.24-.11,.72,.43c1.13,.68,2.63,1.41,3.8,1.86,.2,.08,.37,.15,.38,.15,.03,.02-.32,.78-.9,1.96-.35,.7-.62,1.29-.6,1.31,.04,.05,1.07-.06,1.39-.14,.43-.11,.92-.37,1.22-.66,.32-.29,.32-.27,.08,.26-.17,.4-.51,.85-.73,1.01-.21,.14-.23,.21-.08,.18,.06-.01,.24-.04,.4-.05,.82-.08,1.69-.42,2.18-.85,.14-.13,.26-.23,.26-.22,0,0-.12,.26-.25,.56s-.25,.56-.25,.59c0,.07,.59,.01,1.04-.11,.67-.17,1.28-.56,1.79-1.11l.3-.34-.12,.35c-.07,.19-.21,.52-.3,.73-.18,.4-.57,.98-.64,.98-.02,0-.04,.02-.04,.05s.19,.05,.47,.05c1.25,0,2.36-.6,2.84-1.53l.16-.31,.13,.29c.21,.43,.72,.93,1.22,1.17,.54,.27,.85,.34,1.54,.36l.59,.02-.21-.26c-.24-.3-.52-.82-.75-1.42-.09-.23-.16-.41-.16-.42s.19,.17,.43,.41c.47,.48,.88,.74,1.42,.92,.35,.12,1.21,.25,1.26,.2,.01-.02-.09-.28-.23-.59s-.26-.57-.26-.58,.11,.08,.25,.2c.48,.44,1.38,.8,2.18,.87,.17,.02,.36,.04,.41,.05,.08,.02,.03-.06-.21-.29-.25-.25-.36-.4-.53-.75-.12-.24-.23-.48-.24-.55-.02-.1,0-.09,.19,.1,.51,.49,1.12,.74,2.06,.82,.32,.03,.6,.04,.61,.02,.02-.01-.27-.64-.64-1.4-.72-1.45-.89-1.85-.83-1.9,.02-.02,.29-.13,.59-.25,1.21-.48,2.49-1.12,3.69-1.85l.56-.34,.27,.12c.15,.07,.38,.13,.51,.14,.21,.02,.27,0,.49-.14,.14-.09,.28-.21,.3-.25,.03-.05,.11-.11,.17-.12,.19-.05,.46-.24,.54-.39,.05-.09,.12-.14,.27-.18,.25-.07,.47-.21,.57-.35,.1-.15,.14-.81,.07-1.06l-.05-.18,.4-.38,.4-.38,.21,.19c.43,.4,1.08,.76,1.37,.76,.14,0,.2-.04,.4-.24,.13-.13,.58-.74,.99-1.34,1.52-2.22,1.84-2.54,3.15-3.2,.36-.18,.6-.33,.6-.37,0-.09-.24-.2-.76-.35-.34-.09-.59-.12-1.14-.15l-.69-.03,.15-.59c.17-.67,.34-1.03,.66-1.46,.24-.32,.28-.43,.16-.48-.15-.06-1.85,1.09-2.43,1.64-.8,.74-2.37,2.63-2.72,3.25,0,0-.16-.1-.34-.24-.53-.4-.87-.44-1.38-.16-.25,.13-.44,.28-1.27,1.02-.22,.2-.43,.36-.46,.36-.08,0-.54-.29-.77-.47-.13-.11-.27-.29-.4-.53-.11-.2-.32-.54-.47-.75-.15-.21-.31-.47-.35-.59-.21-.58-.4-.94-.72-1.39-.19-.27-.35-.52-.35-.54,0-.03,.08-.05,.18-.05,.24,0,.46-.05,.46-.1,0-.06-.39-.66-.58-.9-.09-.11-.16-.2-.16-.22s.08-.03,.18-.03c.2,0,.49-.09,.67-.21l.12-.08-.22-.17c-.34-.26-.56-.56-.56-.76,0-.07,.38-.02,.64,.09,.08,.04,.17,.06,.2,.06s-.35-.4-.83-.89c-.49-.49-.88-.91-.88-.92s.06-.02,.14,0c.08,.01,.19,0,.26-.02l.12-.05-.16-.17c-.35-.39-.61-.86-.82-1.46-.07-.2-.14-.4-.16-.45-.03-.07,0-.06,.19,.06,.86,.53,2.2,.98,3.42,1.14,1.29,.17,2.73-.06,3.34-.52,.17-.12,.27-.16,.57-.2,.62-.08,1.1-.28,1.61-.67,.16-.12,.33-.27,.38-.33,.05-.07,.21-.17,.35-.23,.36-.14,.6-.32,.84-.62,.15-.18,.3-.3,.55-.43,.18-.1,.43-.27,.56-.38,.22-.2,.46-.6,.46-.76,0-.06,.07-.12,.21-.17,.43-.19,.84-.69,1.04-1.25,.06-.17,.15-.33,.2-.36,.05-.04,.22-.2,.38-.35,.3-.3,.56-.76,.56-.99,0-.09,.07-.2,.27-.39,.33-.33,.54-.74,.64-1.26,.05-.25,.15-.54,.28-.81,.14-.29,.24-.58,.32-.97,.09-.4,.16-.61,.25-.75,.38-.56,.54-1.17,.46-1.69-.05-.26-.04-.31,.04-.5,.19-.43,.29-.9,.29-1.44,0-.41,.02-.54,.09-.68,.13-.27,.27-.84,.27-1.16,0-.28-.08-.67-.17-.83-.03-.06,0-.19,.06-.46,.24-.85,.24-1.81,0-2.42l-.11-.26,.11-.41c.13-.51,.18-1.44,.11-1.82-.03-.14-.11-.37-.17-.51-.12-.24-.12-.29-.13-.99,0-.93-.14-1.5-.43-1.83-.06-.06-.06-.16-.04-.44,.06-.76-.12-1.64-.45-2.19-.15-.25-.16-.3-.16-.63,0-.86-.17-1.85-.4-2.34-.14-.3-.46-.66-.66-.75-.11-.04-.14-.09-.14-.18,0-.27-.15-1.02-.3-1.48-.24-.74-.67-1.53-1.12-2.06-.15-.18-.22-.1-.18,.21,.08,.56,.1,2.38,.05,3.07-.17,2.03-.65,3.67-1.49,5.02-.44,.7-1.41,1.89-2.24,2.73-1.12,1.14-2.62,1.95-5.92,3.21-.68,.26-1.37,.53-1.52,.59-.62,.28-.97,.67-1.85,2.09-.84,1.34-1.15,1.68-1.73,1.91-.46,.17-1.43,.15-1.78-.04-.15-.09-.17-.13-.1-.17,.11-.06-.01-.62-.13-.62-.03,0-.03-.04,0-.11,.06-.15-.02-.46-.15-.56-.08-.06-.09-.08-.04-.14,.04-.05,.05-.13,.03-.25-.01-.1,0-.18,0-.18,.08,0,.42-.33,.42-.41,0-.07-.05-.08-.4-.06-.52,.02-.76-.04-.99-.27-.1-.1-.17-.19-.17-.22,0-.03,.12-.06,.27-.07,.3-.03,.75-.23,.78-.36,0-.06-.04-.08-.23-.1-.4-.05-.72-.17-.92-.36-.1-.09-.17-.19-.17-.22,0-.02,.09-.06,.2-.08,.11-.02,.29-.07,.4-.12,.23-.1,.53-.37,.48-.44-.01-.02-.2-.06-.4-.06-.45-.02-.69-.13-.92-.4-.19-.22-.25-.4-.13-.35,.18,.08,.74,.08,.95,0,.26-.09,.63-.35,.71-.51,.08-.16,.06-.17-.17-.1-.22,.08-.55,.04-.96-.12-.58-.22-.78-.74-.92-2.35-.04-.46-.08-.92-.1-1.01-.05-.31-.26-.82-.41-1.01l-.16-.18,.18-.1c.19-.09,.44-.41,.64-.82,.13-.25,.07-.34-.12-.17-.19,.17-.45,.3-.63,.29-.14,0-.14,0-.05-.04,.27-.11,.51-.32,.6-.54,.1-.24,.22-.9,.17-1.01-.05-.12-.12-.07-.21,.14-.14,.31-.36,.61-.51,.69-.19,.1-.2,.09-.03-.14l.15-.21v-.6c-.01-.64-.1-1.07-.21-1.07-.05,0-.07,.08-.1,.26-.06,.48-.29,.89-.62,1.08-.42,.25-1.08,.3-3.1,.23-.87-.03-1.28-.03-1.44,0-.36,.09-.72,.28-.99,.54-.14,.13-.26,.24-.26,.24s-.03-.06-.06-.14c-.06-.13-.06-.24,.01-1,.02-.19-.09-.16-.4,.15-.22,.21-.32,.35-.35,.49l-.05,.19-.17-.12c-.13-.1-.21-.12-.41-.12-.34,0-.39,.06-.22,.23l.13,.13-.35,.02c-.34,.03-.66,.15-.66,.25,0,.02,.11,.06,.24,.08,.3,.05,.55,.17,.46,.23-.04,.02-.11,.04-.16,.04-.16,0-.47,.17-.69,.37-.12,.11-.2,.2-.18,.22s.26,.03,.54,.03c.32,0,.55,.03,.61,.06,.09,.06,.09,.06-.02,.09-.2,.06-.9,.41-1.33,.68-.7,.44-1.01,.82-1.18,1.48-.07,.28-.11,1.13-.05,1.22,.05,.08,.11,.05,.2-.13,.11-.2,.49-.58,.8-.79,.54-.36,1.13-.51,1.99-.51,.42,0,1.1,.09,1.16,.15,.01,.01-.11,.12-.27,.23-.75,.53-1.37,.58-2,.15-.12-.08-.22-.12-.24-.09-.05,.05,.05,.37,.17,.53,.11,.15,.08,.18-.07,.1-.19-.1-.24-.04-.16,.2,.14,.4,.47,.77,.84,.94,.44,.2,.98,.16,1.73-.13,.54-.21,.85-.27,1.08-.21,.36,.1,.48,.38,.35,.83-.06,.22-.12,.31-.27,.44-.18,.16-.54,.29-.93,.36-.12,.02-.2,.06-.2,.09,0,.09,.27,.29,.48,.36l.17,.06-.16,.1c-.13,.08-.49,.18-.94,.27-.06,.01-.11,.05-.11,.08,0,.12,.34,.35,.61,.43,.26,.07,.26,.08,.18,.16-.11,.11-.53,.25-.85,.29-.37,.05-.39,.06-.29,.17,.13,.15,.51,.32,.76,.35,.12,.01,.23,.04,.23,.06,0,.08-.4,.37-.57,.41-.1,.03-.36,.04-.58,.03-.22,0-.42,0-.44,.02-.02,.02,.04,.12,.14,.21,.16,.17,.17,.19,.14,.39-.02,.12-.01,.24,.02,.3,.04,.07,.03,.1-.02,.12-.1,.04-.22,.34-.19,.51,.01,.08,0,.17-.04,.21s-.08,.15-.11,.25c-.04,.14-.03,.21,.02,.32,.07,.12,.07,.13,0,.11-.04-.02-.26,.02-.48,.09-.77,.23-1.55,.2-2.09-.08-.31-.16-.72-.62-1.14-1.27-.97-1.53-1.19-1.83-1.5-2.13-.37-.35-.57-.45-1.67-.87-3.38-1.28-4.7-1.94-5.94-2.94-.68-.54-1.99-2.05-2.65-3.05-.81-1.21-1.29-2.64-1.55-4.58-.07-.52-.08-2.76-.02-3.51,.05-.57,0-.6-.28-.23Zm17.98,40.68c-.03,.29-.06,.82-.07,1.19v.67s-.73,2.25-.73,2.25c-.4,1.24-.91,2.82-1.14,3.51s-.41,1.27-.41,1.27c0,.01-.02,.02-.05,.02-.1,0-1.42-.62-2.14-1l-.75-.4,.02-.26c.02-.22,0-.29-.07-.42-.07-.12-.1-.23-.1-.44,0-.16-.03-.34-.07-.41-.06-.12-.35-.28-.51-.28-.11,0-.39-.3-.39-.41,0-.06,.09-.22,.2-.36,.14-.18,.22-.33,.24-.46,.03-.18,.1-.27,.68-.88,.36-.38,.83-.88,1.05-1.12,.35-.37,.46-.46,.79-.62,.21-.11,.48-.28,.59-.38l.21-.18,.07,.12c.04,.06,.07,.15,.07,.21,0,.05,.02,.09,.04,.09,.06,0,.33-.34,.52-.67,.09-.15,.21-.32,.28-.38l.11-.11,.19,.29c.1,.16,.23,.34,.29,.4l.12,.1,.06-.26c.03-.15,.11-.43,.17-.64,.1-.32,.15-.4,.42-.68,.17-.17,.31-.3,.32-.29,.01,0,0,.25-.04,.54Zm9.81-.25c.28,.29,.32,.35,.42,.7,.06,.21,.14,.5,.17,.63,.06,.23,.06,.24,.14,.17,.05-.05,.18-.22,.3-.4,.25-.37,.23-.37,.6,.2,.37,.58,.56,.75,.56,.52,0-.05,.03-.13,.07-.18l.07-.11,.2,.19c.11,.1,.36,.26,.56,.35,.38,.18,.33,.13,1.85,1.73,.49,.52,.69,.76,.69,.84,0,.17,.08,.34,.28,.59,.1,.12,.18,.27,.18,.31,0,.16-.21,.34-.51,.43-.39,.12-.47,.24-.48,.68,0,.24-.02,.36-.08,.46-.06,.09-.08,.19-.07,.39v.27s-.56,.32-.56,.32c-.6,.33-2.04,1.02-2.23,1.07-.11,.03-.12,0-.59-1.46-.27-.81-.79-2.43-1.16-3.58l-.67-2.09v-.64c0-.58-.06-1.31-.12-1.58-.04-.17,.04-.12,.35,.21Z"/>
        <g>
          <path class="cls-1" d="M428.8,43.91c-.34,1.38-1.59,2.01-2.17,2.3-.74,.37-.77,.38-2.02,2.21-.58,.84-1.01,1.42-1.3,1.73h0c-.31,.32-1.12,1.17-2.57,1.17-.04,0-.08,0-.12,0-.34,.4-.77,.74-1.27,.99-.25,.22-.52,.4-.79,.54-.14,.12-.3,.23-.47,.34-.29,.18-.97,.61-1.98,.61-.11,0-.23,0-.33-.01-.05,0-.1,0-.14-.01-.43,.24-.86,.48-1.29,.7,.6,1.37,.94,2.89-.59,4.11-.42,.34-1.04,.67-1.91,.68-.52,.41-1.17,.64-1.86,.64-.17,0-.35-.02-.52-.05l-.14-.02h-.06c-.19-.02-.38-.05-.57-.08-.32,.12-.7,.21-1.15,.21-.05,0-.11,0-.17,0-.5,.36-1.11,.56-1.75,.56-.04,0-.08,0-.12,0l-.57-.02c-1.11-.04-1.83-.21-2.76-.67-.01,0-.02-.01-.03-.02-.89,.45-1.92,.7-3,.7-.96,0-1.66-.23-2.16-.56-.07,0-.13,0-.2,0-.43,0-.83-.07-1.18-.21-.21,.04-.43,.07-.64,.09-.04,0-.08,0-.11,.01-.2,.04-.41,.06-.61,.06-.69,0-1.34-.24-1.87-.64-.79-.03-1.37-.32-1.76-.61h0c-1.64-1.24-1.28-2.81-.7-4.16-.46-.23-.92-.48-1.34-.72-.16,.02-.3,.02-.42,.02-.84,0-1.44-.29-1.83-.52-.21-.12-.42-.26-.61-.42-.3-.15-.57-.34-.81-.56-.5-.26-.93-.61-1.22-.96,0,0-.01-.02-.02-.02-.04,0-.09,0-.13,0-1.97,0-2.86-1.31-3.99-2.98-.64-.94-.99-1.42-1.22-1.65-.23-.22-.55-.42-.99-.6-.99-.4-1.67-1.21-1.9-2.18H211.16v29.47h382v-29.47h-164.36Z"/>
          <path class="cls-1" d="M419.18,47.36l.21,.19c.43,.4,1.08,.76,1.37,.76,.14,0,.2-.04,.4-.24,.13-.13,.58-.74,.99-1.34,1.21-1.77,1.66-2.33,2.46-2.82h-4.69c-.36,.45-.66,.85-.78,1.08,0,0,0,0,0,0-.02,0-.16-.11-.34-.24-.31-.23-.55-.34-.79-.34-.18,0-.37,.06-.59,.18-.25,.13-.44,.28-1.27,1.02-.22,.2-.43,.36-.46,.36-.08,0-.54-.29-.77-.47-.13-.11-.27-.29-.4-.53-.11-.2-.32-.54-.47-.75-.07-.1-.14-.2-.2-.3h-2.22c.15,.16,.32,.34,.53,.55,.49,.52,.69,.76,.69,.84,0,.17,.08,.34,.28,.59,.1,.12,.18,.27,.18,.31,0,.16-.21,.34-.51,.43-.39,.12-.47,.24-.48,.68,0,.24-.02,.36-.08,.46-.06,.09-.08,.19-.07,.39v.27s-.56,.32-.56,.32c-.6,.33-2.04,1.02-2.23,1.07-.01,0-.02,0-.03,0-.08,0-.14-.16-.56-1.47-.27-.81-.79-2.43-1.16-3.58l-.27-.86h-10.4l-.36,1.12c-.4,1.24-.91,2.82-1.14,3.51-.23,.69-.41,1.27-.41,1.27,0,.01-.02,.02-.05,.02-.1,0-1.42-.62-2.14-1l-.75-.4,.02-.26c.02-.22,0-.29-.07-.42-.07-.12-.1-.23-.1-.44,0-.16-.03-.34-.07-.41-.06-.12-.35-.28-.51-.28-.11,0-.39-.3-.39-.41,0-.06,.09-.22,.2-.36,.14-.18,.22-.33,.24-.46,.03-.18,.1-.27,.68-.88,.17-.18,.37-.39,.55-.59h-2.23c-.05,.09-.11,.19-.17,.28-.15,.21-.36,.54-.46,.73-.22,.4-.48,.66-.92,.92l-.29,.17-.12-.09c-.07-.05-.37-.31-.67-.58-.72-.65-1.15-.94-1.55-.94-.24,0-.47,.11-.74,.32-.16,.12-.31,.23-.34,.25,0,0,0,0,0,0-.03,0-.1-.08-.16-.19-.08-.13-.34-.48-.66-.88h-4.7c.29,.19,.56,.4,.8,.63,.4,.39,.81,.92,1.62,2.12,1,1.48,1.16,1.66,1.5,1.66,.2,0,.82-.35,1.23-.69l.31-.26,.4,.4,.39,.4-.02,.35c-.03,.46,.01,.74,.15,.91,.12,.14,.46,.33,.62,.33,.05,0,.12,.06,.16,.13,.09,.17,.26,.3,.47,.38,.09,.03,.22,.11,.28,.18,.06,.07,.2,.18,.32,.25,.13,.08,.2,.11,.32,.11,.04,0,.08,0,.14,0,.14-.01,.35-.07,.48-.13l.24-.11,.72,.43c1.13,.68,2.63,1.41,3.8,1.86,.2,.08,.37,.15,.38,.15,.03,.02-.32,.78-.9,1.96-.35,.7-.62,1.29-.6,1.31,0,0,.04,.01,.1,.01,.27,0,1.03-.08,1.29-.15,.43-.11,.92-.37,1.22-.66,.13-.12,.21-.19,.24-.19,.04,0-.02,.13-.16,.44-.17,.4-.51,.85-.73,1.01-.17,.12-.22,.19-.14,.19,.02,0,.04,0,.06,0,.06-.01,.24-.04,.4-.05,.82-.08,1.69-.42,2.18-.85,.13-.12,.25-.22,.26-.22,0,0,0,0,0,0,0,0-.12,.26-.25,.56s-.25,.56-.25,.59c0,.02,.05,.03,.14,.03,.2,0,.59-.05,.9-.14,.67-.17,1.28-.56,1.79-1.11l.3-.34-.12,.35c-.07,.19-.21,.52-.3,.73-.18,.4-.57,.98-.64,.98-.02,0-.04,.02-.04,.05s.19,.05,.47,.05c1.25,0,2.36-.6,2.84-1.53l.16-.31,.13,.29c.21,.43,.72,.93,1.22,1.17,.54,.27,.85,.34,1.54,.36l.59,.02-.21-.26c-.24-.3-.52-.82-.75-1.42-.09-.23-.16-.41-.16-.42,0,0,0,0,0,0,0,0,.2,.18,.43,.41,.47,.48,.88,.74,1.42,.92,.3,.1,.96,.21,1.19,.21,.04,0,.07,0,.07-.01,.01-.02-.09-.28-.23-.59-.14-.31-.26-.57-.26-.58,0,0,0,0,0,0,.01,0,.12,.09,.25,.2,.48,.44,1.38,.8,2.18,.87,.17,.02,.36,.04,.41,.05,0,0,.01,0,.02,0,.05,0-.01-.08-.23-.3-.25-.25-.36-.4-.53-.75-.12-.24-.23-.48-.24-.55,0-.04-.01-.06,0-.06,.02,0,.08,.05,.19,.16,.51,.49,1.12,.74,2.06,.82,.22,.02,.42,.03,.53,.03,.05,0,.08,0,.08,0,.02-.01-.27-.64-.64-1.4-.72-1.45-.89-1.85-.83-1.9,.02-.02,.29-.13,.59-.25,1.21-.48,2.49-1.12,3.69-1.85l.56-.34,.27,.12c.15,.07,.38,.13,.51,.14,.04,0,.08,0,.11,0,.13,0,.2-.03,.38-.15,.14-.09,.28-.21,.3-.25,.03-.05,.11-.11,.17-.12,.19-.05,.46-.24,.54-.39,.05-.09,.12-.14,.27-.18,.25-.07,.47-.21,.57-.35,.1-.15,.14-.81,.07-1.06l-.05-.18,.4-.38,.4-.38Z"/>
        </g>
      </g>
    </g>
  </g>
</svg>